<?xml version="1.0" encoding="utf-8"?>
<!-- Generator: Adobe Illustrator 27.0.0, SVG Export Plug-In . SVG Version: 6.00 Build 0)  -->
<svg version="1.1" id="Layer_1" xmlns="http://www.w3.org/2000/svg" xmlns:xlink="http://www.w3.org/1999/xlink" x="0px" y="0px"
	 viewBox="0 0 250 250" style="enable-background:new 0 0 250 250;" xml:space="preserve">
<path d="M148.4,125c0,12.9-10.5,23.5-23.4,23.5c-12.9,0-23.5-10.4-23.5-23.4c0-12.9,10.5-23.5,23.4-23.5
	C137.9,101.5,148.4,112,148.4,125z"/>
<path d="M140.6,62.5h-31.2c-43.5,0-46.9,3.4-46.9,46.9v31.2c0,43.5,3.4,46.9,46.9,46.9h31.2c43.5,0,46.9-3.4,46.9-46.9v-31.2
	C187.5,65.9,184.1,62.5,140.6,62.5z M125.1,164.1c-21.6,0-39.1-17.4-39.2-39c0-21.6,17.4-39.1,39-39.2c21.6,0,39.1,17.4,39.2,39
	C164.1,146.5,146.7,164,125.1,164.1z M164.1,93.8c-4.3,0-7.8-3.5-7.8-7.8s3.5-7.8,7.8-7.8c4.3,0,7.8,3.5,7.8,7.8
	C171.9,90.2,168.4,93.7,164.1,93.8z"/>
<path d="M125,0C56,0,0,56,0,125s56,125,125,125s125-56,125-125S194,0,125,0z M203.1,125.7c0,71.8-5.6,77.4-77.4,77.4h-1.4
	c-71.8,0-77.4-5.6-77.4-77.4v-1.4c0-71.8,5.6-77.4,77.4-77.4h0.7c72.5,0,78.1,5.7,78.1,78.1V125.7z"/>
</svg>
