<?xml version="1.0" encoding="utf-8"?>
<!-- Generator: Adobe Illustrator 27.0.0, SVG Export Plug-In . SVG Version: 6.00 Build 0)  -->
<svg version="1.1" id="Layer_1" xmlns="http://www.w3.org/2000/svg" xmlns:xlink="http://www.w3.org/1999/xlink" x="0px" y="0px"
	 viewBox="0 0 250 250" style="enable-background:new 0 0 250 250;" xml:space="preserve">
<g>
	<path d="M80.3,90.4c-22.5,0-40.7,18.2-40.7,40.7c0,22.5,18.2,40.7,40.7,40.7s40.7-18.2,40.7-40.7C120.9,108.6,102.7,90.4,80.3,90.4
		z M80.3,155.5c-13.5,0-24.4-10.9-24.4-24.4c0-13.5,10.9-24.4,24.4-24.4s24.4,10.9,24.4,24.4C104.7,144.6,93.7,155.5,80.3,155.5z"/>
	<path d="M125,0C56,0,0,56,0,125s56,125,125,125s125-56,125-125S194,0,125,0z M169.7,179.9c-14.2,0-27-6.1-35.9-15.8l-8.8,11.8
		l-8.8-11.8c-8.9,9.7-21.7,15.8-35.9,15.8c-27,0-48.8-21.8-48.8-48.8c0-11.4,3.9-21.9,10.5-30.2c-3.4-9.9-10.5-18.6-10.5-18.6h31.7
		C79.6,72.2,101.3,66,125,66c23.7,0,45.3,6.1,61.8,16.3h31.7c0,0-7.1,8.8-10.5,18.6c6.5,8.3,10.5,18.8,10.5,30.2
		C218.5,158.1,196.7,179.9,169.7,179.9z"/>
	<path d="M80.3,114.8c-9,0-16.3,7.3-16.3,16.3c0,9,7.3,16.3,16.3,16.3s16.3-7.3,16.3-16.3C96.5,122.1,89.3,114.8,80.3,114.8z
		 M80.3,139.2c-4.5,0-8.1-3.6-8.1-8.1c0-4.5,3.6-8.1,8.1-8.1s8.1,3.6,8.1,8.1C88.4,135.6,84.8,139.2,80.3,139.2z"/>
	<path d="M169.7,114.8c-9,0-16.3,7.3-16.3,16.3c0,9,7.3,16.3,16.3,16.3s16.3-7.3,16.3-16.3C186,122.1,178.7,114.8,169.7,114.8z
		 M169.7,139.2c-4.5,0-8.1-3.6-8.1-8.1c0-4.5,3.6-8.1,8.1-8.1s8.1,3.6,8.1,8.1C177.9,135.6,174.2,139.2,169.7,139.2z"/>
	<path d="M168.9,82.4c-13.1-5.3-28.1-8.2-43.9-8.2c-15.7,0-30.7,2.8-43.7,8.1L81,82.4c19.7,0.3,36.6,12.2,44,29.3
		C132.4,94.6,149.3,82.7,168.9,82.4z"/>
	<path d="M169.7,90.4c-22.5,0-40.7,18.2-40.7,40.7c0,22.5,18.2,40.7,40.7,40.7s40.7-18.2,40.7-40.7
		C210.4,108.6,192.2,90.4,169.7,90.4z M169.7,155.5c-13.5,0-24.4-10.9-24.4-24.4c0-13.5,10.9-24.4,24.4-24.4s24.4,10.9,24.4,24.4
		C194.1,144.6,183.2,155.5,169.7,155.5z"/>
</g>
</svg>
